<svg xmlns="http://www.w3.org/2000/svg" viewBox="0 0 62 62"><defs><style>.a{fill:#e2434b;}.b{fill:#34222e;}</style></defs><path class="a" d="M58,1H32a1,1,0,0,0-1,1V19l9,6h.54a6,6,0,0,1,8.92,0H50l9-6V2A1,1,0,0,0,58,1Z" transform="translate(-1 -1)"/><path class="b" d="M6,14a1,1,0,0,0,1-1,6,6,0,0,1,6-6,1,1,0,0,0,0-2,8,8,0,0,0-8,8A1,1,0,0,0,6,14Z" transform="translate(-1 -1)"/><path class="b" d="M63,39.14A.58.58,0,0,0,63,39V17a.29.29,0,0,0,0-.09.58.58,0,0,0,0-.19,1.07,1.07,0,0,0-.07-.19s0-.06,0-.09l-.07-.06,0-.09L59,12.59v2.82l1.43,1.43L49.81,23.92A7,7,0,0,0,45,22h0a7,7,0,0,0-4.81,1.93L29.57,16.84,31,15.41V12.59l-3.71,3.7-.05.09-.07.07s0,.06,0,.09a.67.67,0,0,0-.07.18.65.65,0,0,0,0,.19A.29.29,0,0,0,27,17V39a.58.58,0,0,0,0,.14,1.43,1.43,0,0,0,0,.22.76.76,0,0,0,.12.19.47.47,0,0,0,.07.12l0,0a1,1,0,0,0,.27.19l.06,0A1,1,0,0,0,28,40H44V56.5a4.5,4.5,0,0,1-9,0V48a6,6,0,0,0-12,0v8.5a4.5,4.5,0,0,1-9,0V39h1a1,1,0,0,0,1-1V34.6A12,12,0,0,0,25,23V13A12,12,0,0,0,1,13V23a12,12,0,0,0,9,11.6V38a1,1,0,0,0,1,1h1V56.5a6.5,6.5,0,0,0,13,0V48a4,4,0,0,1,8,0v8.5a6.5,6.5,0,0,0,13,0V40H62a1,1,0,0,0,.39-.08l0,0a.92.92,0,0,0,.28-.19l0,0a.47.47,0,0,0,.07-.12.76.76,0,0,0,.12-.19A.78.78,0,0,0,63,39.14Zm-53-6.6V23h6v9.54a10,10,0,0,1-6,0Zm8-.89V23h5A10,10,0,0,1,18,31.65ZM13,3A10,10,0,0,1,23,13v8H3V13A10,10,0,0,1,13,3ZM3,23H8v8.65A10,10,0,0,1,3,23ZM13,35c.34,0,.67,0,1,0v2H12V35C12.33,35,12.66,35,13,35Zm39-6.46a7,7,0,0,0-.92-3L61,18.87V36.74ZM45,24h0a5,5,0,0,1,5,5v1a1,1,0,0,1-1,1h0a1,1,0,0,1-1-1V29h0a3,3,0,1,0-3,3,3,3,0,0,0,1.47-.39,2.55,2.55,0,0,0,.41.51A3,3,0,0,0,49,33h0a3,3,0,0,0,2.79-1.93L59.41,38H30.59l7.7-7A7,7,0,0,0,45,36h3a1,1,0,0,0,0-2H45a5,5,0,0,1,0-10Zm1,5a1,1,0,1,1-1-1A1,1,0,0,1,46,29Zm-8-.46-9,8.2V18.87L39,25.5A7,7,0,0,0,38,28.54Z" transform="translate(-1 -1)"/><path class="b" d="M14,30V26a1,1,0,0,0-2,0v4a1,1,0,0,0,2,0Z" transform="translate(-1 -1)"/><path class="b" d="M36,11h7a1,1,0,0,0,0-2H36a1,1,0,0,0,0,2Z" transform="translate(-1 -1)"/><path class="b" d="M54,9H47a1,1,0,0,0,0,2h7a1,1,0,0,0,0-2Z" transform="translate(-1 -1)"/><path class="b" d="M36,7H54a1,1,0,0,0,0-2H36a1,1,0,0,0,0,2Z" transform="translate(-1 -1)"/><path class="b" d="M36,15H54a1,1,0,0,0,0-2H36a1,1,0,0,0,0,2Z" transform="translate(-1 -1)"/><circle class="b" cx="44" cy="17" r="1"/><circle class="b" cx="50" cy="17" r="1"/><circle class="b" cx="38" cy="17" r="1"/></svg>