<svg xmlns="http://www.w3.org/2000/svg" viewBox="0 0 62 62"><defs><style>.a{fill:#e2434b;}.b{fill:#34222e;}</style></defs><path class="a" d="M60,6H56a1,1,0,0,0-1,1V33h6V7A1,1,0,0,0,60,6Z" transform="translate(-1 -1)"/><path class="a" d="M52,13H48a1,1,0,0,0-1,1V33h6V14A1,1,0,0,0,52,13Z" transform="translate(-1 -1)"/><path class="a" d="M44,16H40a1,1,0,0,0-1,1V33h6V17A1,1,0,0,0,44,16Z" transform="translate(-1 -1)"/><path class="a" d="M36,19H32a1,1,0,0,0-1,1V33h6V20A1,1,0,0,0,36,19Z" transform="translate(-1 -1)"/><circle class="b" cx="14" cy="57" r="1"/><path class="b" d="M62,34H30a1,1,0,0,1,0-2H62a1,1,0,0,1,0,2Z" transform="translate(-1 -1)"/><path class="b" d="M49,1H43a1,1,0,0,0,0,2h3.08A38.1,38.1,0,0,1,26.62,17.2,14,14,0,1,0,12,38.67V43H11a1,1,0,0,0-1,1V58a5,5,0,0,0,10,0V44a1,1,0,0,0-1-1H18V38.67A14,14,0,0,0,29,25a13.87,13.87,0,0,0-1.39-6A40.16,40.16,0,0,0,48,3.76V8a1,1,0,0,0,2,0V2A1,1,0,0,0,49,1ZM18,58a3,3,0,0,1-6,0V45h6ZM16,43H14V39c.33,0,.66,0,1,0s.67,0,1,0ZM27,25a12,12,0,1,1-2.43-7.22c-.73.19-1.45.35-2.19.5A10,10,0,1,0,23.67,20c.68-.15,1.34-.31,2-.49A11.92,11.92,0,0,1,27,25ZM15,21a40.92,40.92,0,0,0,6.57-.55A7.93,7.93,0,0,1,23,25a8,8,0,1,1-3.11-6.32A37.77,37.77,0,0,1,15,19a1,1,0,0,0,0,2Z" transform="translate(-1 -1)"/><circle class="b" cx="32" cy="39" r="1"/><circle class="b" cx="32" cy="45" r="1"/><circle class="b" cx="32" cy="51" r="1"/><circle class="b" cx="32" cy="57" r="1"/><path class="b" d="M59,41H37a1,1,0,0,1,0-2H59a1,1,0,0,1,0,2Z" transform="translate(-1 -1)"/><path class="b" d="M59,53H37a1,1,0,0,1,0-2H59a1,1,0,0,1,0,2Z" transform="translate(-1 -1)"/><path class="b" d="M46,47H37a1,1,0,0,1,0-2h9a1,1,0,0,1,0,2Z" transform="translate(-1 -1)"/><path class="b" d="M59,47H50a1,1,0,0,1,0-2h9a1,1,0,0,1,0,2Z" transform="translate(-1 -1)"/><path class="b" d="M46,59H37a1,1,0,0,1,0-2h9a1,1,0,0,1,0,2Z" transform="translate(-1 -1)"/><path class="b" d="M59,59H50a1,1,0,0,1,0-2h9a1,1,0,0,1,0,2Z" transform="translate(-1 -1)"/></svg>