<svg xmlns="http://www.w3.org/2000/svg" viewBox="0 0 62 62"><defs><style>.a{fill:#e2434b;}.b{fill:#34222e;}</style></defs><circle class="a" cx="31" cy="41" r="10"/><path class="a" d="M62,63H50a1,1,0,0,1-1-1V58.53l-2.56-1.7a1,1,0,0,1,0-1.66L49,53.47V50a1,1,0,0,1,1-1H62a1,1,0,0,1,1,1V62A1,1,0,0,1,62,63ZM50,54h0Z" transform="translate(-1 -1)"/><path class="a" d="M14,39H2a1,1,0,0,1-1-1V26a1,1,0,0,1,1-1H14a1,1,0,0,1,1,1v3.47l2.56,1.7a1,1,0,0,1,0,1.66L15,34.53V38A1,1,0,0,1,14,39Z" transform="translate(-1 -1)"/><path class="b" d="M41,23H23a4,4,0,0,0-4,4V59a4,4,0,0,0,4,4H41a4,4,0,0,0,4-4V27A4,4,0,0,0,41,23ZM21,31H43V53H21Zm2-6H41a2,2,0,0,1,2,2v2H21V27A2,2,0,0,1,23,25ZM41,61H23a2,2,0,0,1-2-2V55H43v4A2,2,0,0,1,41,61Z" transform="translate(-1 -1)"/><path class="b" d="M36,57H28a1,1,0,0,0,0,2h8a1,1,0,0,0,0-2Z" transform="translate(-1 -1)"/><path class="b" d="M34.89,41.75A4,4,0,0,0,36,39a4,4,0,0,0-8,0,4,4,0,0,0,1.11,2.75A6,6,0,0,0,26,47v1a1,1,0,0,0,1,1H37a1,1,0,0,0,1-1V47A6,6,0,0,0,34.89,41.75ZM30,39a2,2,0,1,1,2,2A2,2,0,0,1,30,39Zm-2,8a4,4,0,0,1,8,0Z" transform="translate(-1 -1)"/><circle class="b" cx="57" cy="55" r="1"/><circle class="b" cx="53" cy="55" r="1"/><circle class="b" cx="5" cy="31" r="1"/><circle class="b" cx="9" cy="31" r="1"/><path class="b" d="M23,21H41a1,1,0,0,0,.81-.42,1,1,0,0,0,.14-.9l-1.27-3.79a5,5,0,0,0-3.76-3.33L35,12.18V12a5,5,0,0,0,2-4V6A5,5,0,0,0,27,6V8a5,5,0,0,0,2,4v.2l-1.92.38a5,5,0,0,0-3.76,3.33l-1.27,3.79A1,1,0,0,0,23,21Zm8-8.1a5,5,0,0,0,2,0V13h0a1,1,0,0,1-2,0h0ZM29,6a3,3,0,0,1,6,0V8a3,3,0,0,1-6,0ZM25.22,16.52a3,3,0,0,1,2.25-2l1.77-.36a3,3,0,0,0,5.52,0l1.77.35a3,3,0,0,1,2.25,2L39.61,19H24.39Z" transform="translate(-1 -1)"/><path class="b" d="M63,19.68l-1.27-3.79a5,5,0,0,0-3.76-3.33L56,12.18V12a5,5,0,0,0,2-4V6A5,5,0,0,0,48,6V8a5,5,0,0,0,2,4v.2l-1.92.38a5,5,0,0,0-3.76,3.33l-1.27,3.79A1,1,0,0,0,44,21H62a1,1,0,0,0,.81-.42A1,1,0,0,0,63,19.68ZM52,12.9a5.05,5.05,0,0,0,2,0V13h0a1,1,0,0,1-2,0h0ZM50,6a3,3,0,0,1,6,0V8a3,3,0,0,1-6,0ZM45.39,19l.83-2.48a3,3,0,0,1,2.25-2l1.77-.36a3,3,0,0,0,5.52,0l1.77.35a3,3,0,0,1,2.25,2L60.61,19Z" transform="translate(-1 -1)"/><path class="b" d="M20.81,20.58a1,1,0,0,0,.14-.9l-1.27-3.79a5,5,0,0,0-3.76-3.33L14,12.18V12a5,5,0,0,0,2-4V6A5,5,0,0,0,6,6V8a5,5,0,0,0,2,4v.2l-1.92.39a5,5,0,0,0-3.76,3.32L1.05,19.68A1,1,0,0,0,2,21H20A1,1,0,0,0,20.81,20.58ZM10,12.9a5.05,5.05,0,0,0,2,0V13h0a1,1,0,0,1-2,0h0ZM8,6a3,3,0,0,1,6,0V8A3,3,0,0,1,8,8ZM3.39,19l.83-2.48a3,3,0,0,1,2.25-2l1.77-.36a3,3,0,0,0,5.52,0l1.77.35a3,3,0,0,1,2.25,2L18.61,19Z" transform="translate(-1 -1)"/></svg>