<svg xmlns="http://www.w3.org/2000/svg" viewBox="0 0 62 62"><defs><style>.a{fill:#e2434b;}.b{fill:#34222e;}</style></defs><path class="a" d="M49,33H15a2,2,0,0,1-2-2V7a2,2,0,0,1,2-2H49a2,2,0,0,1,2,2V31A2,2,0,0,1,49,33Z" transform="translate(-1 -1)"/><path class="b" d="M58,1H6A5,5,0,0,0,1,6V32a5,5,0,0,0,5,5H20v8.6a5,5,0,0,0,1.1,3.12L24,52.35V62a1,1,0,0,0,1,1H39a1,1,0,0,0,1-1V52.28l2.29-3.81A5.08,5.08,0,0,0,43,45.89V37H58a5,5,0,0,0,5-5V6A5,5,0,0,0,58,1ZM3,32V6A3,3,0,0,1,6,3H9V35H6A3,3,0,0,1,3,32ZM41,45.89a3,3,0,0,1-.43,1.55l-2.43,4.05A1,1,0,0,0,38,52v9H26V52a1,1,0,0,0-.22-.62l-3.12-3.91A3,3,0,0,1,22,45.6V36.11A1.07,1.07,0,0,1,22.83,35,1,1,0,0,1,24,36v5a1,1,0,0,0,2,0V34a1.07,1.07,0,0,1,.82-1.09,1,1,0,0,1,.83.22,1,1,0,0,1,.35.76s0,0,0,.06,0,0,0,0v7a1,1,0,0,0,2,0V34s0,0,0,0,0,0,0-.06V32a1.07,1.07,0,0,1,.82-1.09,1,1,0,0,1,1.18,1V41a1,1,0,0,0,2,0V21a1,1,0,0,1,.35-.76,1,1,0,0,1,.82-.23,1.09,1.09,0,0,1,.83,1.1V41a1,1,0,0,0,2,0V33a3,3,0,0,1,3,3ZM37.81,20a3,3,0,0,0-4.75-1.32A2.88,2.88,0,0,0,32.18,20,.58.58,0,0,0,32,20H25V14H45v6H38A.65.65,0,0,0,37.81,20ZM42.9,35A5,5,0,0,0,38,31V22h8a1,1,0,0,0,1-1V13a1,1,0,0,0-1-1H24a1,1,0,0,0-1,1v8a1,1,0,0,0,1,1h8v7.07a2.95,2.95,0,0,0-3.87,2,3.11,3.11,0,0,0-1.63-.18,3,3,0,0,0-2.4,2.28A3,3,0,0,0,20.2,35H11V3H53V35H43ZM61,32a3,3,0,0,1-3,3H55V3h3a3,3,0,0,1,3,3Z" transform="translate(-1 -1)"/><path class="b" d="M6,14a1,1,0,0,0-1,1v8a1,1,0,0,0,2,0V15A1,1,0,0,0,6,14Z" transform="translate(-1 -1)"/><path class="b" d="M22,24H14a1,1,0,0,0,0,2h8a1,1,0,0,0,0-2Z" transform="translate(-1 -1)"/><path class="b" d="M22,28H14a1,1,0,0,0,0,2h8a1,1,0,0,0,0-2Z" transform="translate(-1 -1)"/><path class="b" d="M50,24H42a1,1,0,0,0,0,2h8a1,1,0,0,0,0-2Z" transform="translate(-1 -1)"/><path class="b" d="M22,7H14a1,1,0,0,0,0,2h8a1,1,0,0,0,0-2Z" transform="translate(-1 -1)"/><path class="b" d="M46,7H38a1,1,0,0,0,0,2h8a1,1,0,0,0,0-2Z" transform="translate(-1 -1)"/><path class="b" d="M50,28H42a1,1,0,0,0,0,2h8a1,1,0,0,0,0-2Z" transform="translate(-1 -1)"/><circle class="b" cx="49" cy="7" r="1"/><circle class="b" cx="25" cy="7" r="1"/><circle class="b" cx="29" cy="7" r="1"/></svg>